<?xml version="1.0" encoding="UTF-8" standalone="no"?>
<!-- Created with Inkscape (http://www.inkscape.org/) -->

<svg
   width="86.14782mm"
   height="14.028665mm"
   viewBox="0 0 86.147819 14.028665"
   version="1.1"
   id="svg5"
   inkscape:version="1.1.2 (0a00cf5339, 2022-02-04, custom)"
   sodipodi:docname="arreglo4.svg"
   xmlns:inkscape="http://www.inkscape.org/namespaces/inkscape"
   xmlns:sodipodi="http://sodipodi.sourceforge.net/DTD/sodipodi-0.dtd"
   xmlns="http://www.w3.org/2000/svg"
   xmlns:svg="http://www.w3.org/2000/svg">
  <sodipodi:namedview
     id="namedview7"
     pagecolor="#ffffff"
     bordercolor="#999999"
     borderopacity="1"
     inkscape:pageshadow="0"
     inkscape:pageopacity="0"
     inkscape:pagecheckerboard="0"
     inkscape:document-units="mm"
     showgrid="true"
     inkscape:zoom="4.3743523"
     inkscape:cx="196.37193"
     inkscape:cy="12.11608"
     inkscape:window-width="1920"
     inkscape:window-height="1013"
     inkscape:window-x="0"
     inkscape:window-y="0"
     inkscape:window-maximized="1"
     inkscape:current-layer="layer1">
    <inkscape:grid
       type="xygrid"
       id="grid824"
       originx="-13.695712"
       originy="-132.44514" />
  </sodipodi:namedview>
  <defs
     id="defs2">
    <marker
       style="overflow:visible"
       id="Arrow1Mstart"
       refX="0"
       refY="0"
       orient="auto"
       inkscape:stockid="Arrow1Mstart"
       inkscape:isstock="true">
      <path
         transform="matrix(0.4,0,0,0.4,4,0)"
         style="fill:context-stroke;fill-rule:evenodd;stroke:context-stroke;stroke-width:1pt"
         d="M 0,0 5,-5 -12.5,0 5,5 Z"
         id="path8272" />
    </marker>
    <marker
       style="overflow:visible"
       id="StopL"
       refX="0"
       refY="0"
       orient="auto"
       inkscape:stockid="StopL"
       inkscape:isstock="true">
      <path
         transform="scale(0.8)"
         style="fill:none;fill-opacity:0.75;fill-rule:evenodd;stroke:context-stroke;stroke-width:1pt"
         d="M 0,5.65 V -5.65"
         id="path8435" />
    </marker>
    <marker
       inkscape:stockid="DistanceStart"
       orient="auto"
       refY="0"
       refX="0"
       id="DistanceStart"
       style="overflow:visible"
       inkscape:isstock="true">
      <g
         id="g2300">
        <path
           id="path2306"
           d="M 0,0 H 2"
           style="fill:none;stroke:context-fill;stroke-width:1.15;stroke-linecap:square" />
        <path
           id="path2302"
           d="M 0,0 13,4 9,0 13,-4 Z"
           style="fill:context-stroke;fill-rule:evenodd;stroke:none" />
        <path
           id="path2304"
           d="M 0,-4 V 40"
           style="fill:none;stroke:context-stroke;stroke-width:1;stroke-linecap:square" />
      </g>
    </marker>
    <marker
       style="overflow:visible"
       id="Arrow1Mend"
       refX="0"
       refY="0"
       orient="auto"
       inkscape:stockid="Arrow1Mend"
       inkscape:isstock="true">
      <path
         transform="matrix(-0.4,0,0,-0.4,-4,0)"
         style="fill:context-stroke;fill-rule:evenodd;stroke:context-stroke;stroke-width:1pt"
         d="M 0,0 5,-5 -12.5,0 5,5 Z"
         id="path8275" />
    </marker>
    <marker
       style="overflow:visible"
       id="DotS"
       refX="0"
       refY="0"
       orient="auto"
       inkscape:stockid="DotS"
       inkscape:isstock="true">
      <path
         transform="matrix(0.2,0,0,0.2,1.48,0.2)"
         style="fill:context-stroke;fill-rule:evenodd;stroke:context-stroke;stroke-width:1pt"
         d="m -2.5,-1 c 0,2.76 -2.24,5 -5,5 -2.76,0 -5,-2.24 -5,-5 0,-2.76 2.24,-5 5,-5 2.76,0 5,2.24 5,5 z"
         id="path8333" />
    </marker>
    <marker
       style="overflow:visible"
       id="Arrow2Sstart"
       refX="0"
       refY="0"
       orient="auto"
       inkscape:stockid="Arrow2Sstart"
       inkscape:isstock="true">
      <path
         transform="matrix(0.3,0,0,0.3,-0.69,0)"
         d="M 8.7185878,4.0337352 -2.2072895,0.01601326 8.7185884,-4.0017078 c -1.7454984,2.3720609 -1.7354408,5.6174519 -6e-7,8.035443 z"
         style="fill:context-stroke;fill-rule:evenodd;stroke:context-stroke;stroke-width:0.625;stroke-linejoin:round"
         id="path8296" />
    </marker>
    <marker
       style="overflow:visible"
       id="DotM"
       refX="0"
       refY="0"
       orient="auto"
       inkscape:stockid="DotM"
       inkscape:isstock="true">
      <path
         transform="matrix(0.4,0,0,0.4,2.96,0.4)"
         style="fill:context-stroke;fill-rule:evenodd;stroke:context-stroke;stroke-width:1pt"
         d="m -2.5,-1 c 0,2.76 -2.24,5 -5,5 -2.76,0 -5,-2.24 -5,-5 0,-2.76 2.24,-5 5,-5 2.76,0 5,2.24 5,5 z"
         id="path8330" />
    </marker>
    <inkscape:perspective
       sodipodi:type="inkscape:persp3d"
       inkscape:vp_x="0 : -134.47134 : 1"
       inkscape:vp_y="0 : 999.99998 : 0"
       inkscape:vp_z="210.00001 : -134.47134 : 1"
       inkscape:persp3d-origin="105 : -183.97134 : 1"
       id="perspective1452" />
    <marker
       style="overflow:visible"
       id="DotS-3"
       refX="0"
       refY="0"
       orient="auto"
       inkscape:stockid="DotS"
       inkscape:isstock="true">
      <path
         transform="matrix(0.2,0,0,0.2,1.48,0.2)"
         style="fill:context-stroke;fill-rule:evenodd;stroke:context-stroke;stroke-width:1pt"
         d="m -2.5,-1 c 0,2.76 -2.24,5 -5,5 -2.76,0 -5,-2.24 -5,-5 0,-2.76 2.24,-5 5,-5 2.76,0 5,2.24 5,5 z"
         id="path8333-6" />
    </marker>
    <marker
       style="overflow:visible"
       id="marker8830"
       refX="0"
       refY="0"
       orient="auto"
       inkscape:stockid="DotS"
       inkscape:isstock="true">
      <path
         transform="matrix(0.2,0,0,0.2,1.48,0.2)"
         style="fill:context-stroke;fill-rule:evenodd;stroke:context-stroke;stroke-width:1pt"
         d="m -2.5,-1 c 0,2.76 -2.24,5 -5,5 -2.76,0 -5,-2.24 -5,-5 0,-2.76 2.24,-5 5,-5 2.76,0 5,2.24 5,5 z"
         id="path8828" />
    </marker>
    <marker
       style="overflow:visible"
       id="DotS-9"
       refX="0"
       refY="0"
       orient="auto"
       inkscape:stockid="DotS"
       inkscape:isstock="true">
      <path
         transform="matrix(0.2,0,0,0.2,1.48,0.2)"
         style="fill:context-stroke;fill-rule:evenodd;stroke:context-stroke;stroke-width:1pt"
         d="m -2.5,-1 c 0,2.76 -2.24,5 -5,5 -2.76,0 -5,-2.24 -5,-5 0,-2.76 2.24,-5 5,-5 2.76,0 5,2.24 5,5 z"
         id="path8333-64" />
    </marker>
    <marker
       style="overflow:visible"
       id="marker15947"
       refX="0"
       refY="0"
       orient="auto"
       inkscape:stockid="DotS"
       inkscape:isstock="true">
      <path
         transform="matrix(0.2,0,0,0.2,1.48,0.2)"
         style="fill:context-stroke;fill-rule:evenodd;stroke:context-stroke;stroke-width:1pt"
         d="m -2.5,-1 c 0,2.76 -2.24,5 -5,5 -2.76,0 -5,-2.24 -5,-5 0,-2.76 2.24,-5 5,-5 2.76,0 5,2.24 5,5 z"
         id="path15945" />
    </marker>
    <marker
       style="overflow:visible"
       id="DotS-3-1"
       refX="0"
       refY="0"
       orient="auto"
       inkscape:stockid="DotS"
       inkscape:isstock="true">
      <path
         transform="matrix(0.2,0,0,0.2,1.48,0.2)"
         style="fill:context-stroke;fill-rule:evenodd;stroke:context-stroke;stroke-width:1pt"
         d="m -2.5,-1 c 0,2.76 -2.24,5 -5,5 -2.76,0 -5,-2.24 -5,-5 0,-2.76 2.24,-5 5,-5 2.76,0 5,2.24 5,5 z"
         id="path8333-6-9" />
    </marker>
    <marker
       style="overflow:visible"
       id="DotS-6"
       refX="0"
       refY="0"
       orient="auto"
       inkscape:stockid="DotS"
       inkscape:isstock="true">
      <path
         transform="matrix(0.2,0,0,0.2,1.48,0.2)"
         style="fill:context-stroke;fill-rule:evenodd;stroke:context-stroke;stroke-width:1pt"
         d="m -2.5,-1 c 0,2.76 -2.24,5 -5,5 -2.76,0 -5,-2.24 -5,-5 0,-2.76 2.24,-5 5,-5 2.76,0 5,2.24 5,5 z"
         id="path8333-9" />
    </marker>
    <marker
       style="overflow:visible"
       id="marker41680"
       refX="0"
       refY="0"
       orient="auto"
       inkscape:stockid="DotS"
       inkscape:isstock="true">
      <path
         transform="matrix(0.2,0,0,0.2,1.48,0.2)"
         style="fill:context-stroke;fill-rule:evenodd;stroke:context-stroke;stroke-width:1pt"
         d="m -2.5,-1 c 0,2.76 -2.24,5 -5,5 -2.76,0 -5,-2.24 -5,-5 0,-2.76 2.24,-5 5,-5 2.76,0 5,2.24 5,5 z"
         id="path41678" />
    </marker>
    <marker
       style="overflow:visible"
       id="marker41684"
       refX="0"
       refY="0"
       orient="auto"
       inkscape:stockid="DotS"
       inkscape:isstock="true">
      <path
         transform="matrix(0.2,0,0,0.2,1.48,0.2)"
         style="fill:context-stroke;fill-rule:evenodd;stroke:context-stroke;stroke-width:1pt"
         d="m -2.5,-1 c 0,2.76 -2.24,5 -5,5 -2.76,0 -5,-2.24 -5,-5 0,-2.76 2.24,-5 5,-5 2.76,0 5,2.24 5,5 z"
         id="path41682" />
    </marker>
    <marker
       style="overflow:visible"
       id="StopL-8"
       refX="0"
       refY="0"
       orient="auto"
       inkscape:stockid="StopL"
       inkscape:isstock="true">
      <path
         transform="scale(0.8)"
         style="fill:none;fill-opacity:0.75;fill-rule:evenodd;stroke:context-stroke;stroke-width:1pt"
         d="M 0,5.65 V -5.65"
         id="path8435-2" />
    </marker>
    <marker
       style="overflow:visible"
       id="marker50878"
       refX="0"
       refY="0"
       orient="auto"
       inkscape:stockid="StopL"
       inkscape:isstock="true">
      <path
         transform="scale(0.8)"
         style="fill:none;fill-opacity:0.75;fill-rule:evenodd;stroke:context-stroke;stroke-width:1pt"
         d="M 0,5.65 V -5.65"
         id="path50876" />
    </marker>
    <marker
       style="overflow:visible"
       id="Arrow1Mstart-6"
       refX="0"
       refY="0"
       orient="auto"
       inkscape:stockid="Arrow1Mstart"
       inkscape:isstock="true">
      <path
         transform="matrix(0.4,0,0,0.4,4,0)"
         style="fill:context-stroke;fill-rule:evenodd;stroke:context-stroke;stroke-width:1pt"
         d="M 0,0 5,-5 -12.5,0 5,5 Z"
         id="path8272-0" />
    </marker>
    <marker
       style="overflow:visible"
       id="Arrow1Mend-2"
       refX="0"
       refY="0"
       orient="auto"
       inkscape:stockid="Arrow1Mend"
       inkscape:isstock="true">
      <path
         transform="matrix(-0.4,0,0,-0.4,-4,0)"
         style="fill:context-stroke;fill-rule:evenodd;stroke:context-stroke;stroke-width:1pt"
         d="M 0,0 5,-5 -12.5,0 5,5 Z"
         id="path8275-7" />
    </marker>
    <marker
       style="overflow:visible"
       id="Arrow1Mstart-6-7"
       refX="0"
       refY="0"
       orient="auto"
       inkscape:stockid="Arrow1Mstart"
       inkscape:isstock="true">
      <path
         transform="matrix(0.4,0,0,0.4,4,0)"
         style="fill:context-stroke;fill-rule:evenodd;stroke:context-stroke;stroke-width:1pt"
         d="M 0,0 5,-5 -12.5,0 5,5 Z"
         id="path8272-0-5" />
    </marker>
    <marker
       style="overflow:visible"
       id="Arrow1Mend-2-8"
       refX="0"
       refY="0"
       orient="auto"
       inkscape:stockid="Arrow1Mend"
       inkscape:isstock="true">
      <path
         transform="matrix(-0.4,0,0,-0.4,-4,0)"
         style="fill:context-stroke;fill-rule:evenodd;stroke:context-stroke;stroke-width:1pt"
         d="M 0,0 5,-5 -12.5,0 5,5 Z"
         id="path8275-7-7" />
    </marker>
  </defs>
  <g
     inkscape:label="Layer 1"
     inkscape:groupmode="layer"
     id="layer1"
     transform="translate(-13.695713,-132.44513)">
    <path
       style="fill:none;stroke:#000000;stroke-width:0.264583px;stroke-linecap:butt;stroke-linejoin:miter;stroke-opacity:1"
       d="m 30.427086,140.22918 h 9.260416"
       id="path7500-7"
       sodipodi:nodetypes="cc" />
    <path
       style="fill:none;stroke:#000000;stroke-width:0.264583px;stroke-linecap:butt;stroke-linejoin:miter;stroke-opacity:1"
       d="M 39.687502,142.87502 H 30.427086"
       id="path7502-5"
       sodipodi:nodetypes="cc" />
    <path
       style="fill:none;stroke:#000000;stroke-width:0.264583px;stroke-linecap:butt;stroke-linejoin:miter;stroke-opacity:1;marker-end:url(#DotS)"
       d="M 27.78125,140.22917 H 21.166667"
       id="path7500-7-7"
       sodipodi:nodetypes="cc" />
    <path
       style="fill:none;stroke:#000000;stroke-width:0.264583px;stroke-linecap:butt;stroke-linejoin:miter;stroke-opacity:1;marker-end:url(#DotS)"
       d="M 27.78125,142.875 H 21.166667"
       id="path7502-5-7"
       sodipodi:nodetypes="cc" />
    <rect
       style="fill:#ffffff;stroke:#000000;stroke-width:0.264999"
       id="rect7526"
       width="5.2916665"
       height="5.2916665"
       x="27.78125"
       y="138.90622" />
    <path
       sodipodi:type="star"
       style="fill:#000000;stroke:#000000;stroke-width:1.00157"
       id="path7552"
       inkscape:flatsided="false"
       sodipodi:sides="3"
       sodipodi:cx="65"
       sodipodi:cy="675"
       sodipodi:r1="5"
       sodipodi:r2="2.5"
       sodipodi:arg1="0"
       sodipodi:arg2="1.0471976"
       inkscape:rounded="0"
       inkscape:randomized="0"
       d="m 70,675 -3.75,2.16506 -3.75,2.16507 V 675 670.66987 l 3.75,2.16507 z"
       transform="matrix(0.21166672,0,0,0.23610775,17.462498,-17.820677)"
       inkscape:transform-center-x="-0.26458378"
       inkscape:transform-center-y="-1.1e-06" />
    <rect
       style="fill:#000000;stroke:#000000;stroke-width:0.217722"
       id="rect7656"
       width="1.8520827"
       height="0.71439439"
       x="28.839584"
       y="141.20946" />
    <path
       style="fill:none;stroke:#000000;stroke-width:0.185208;stroke-linecap:butt;stroke-linejoin:miter;stroke-miterlimit:4;stroke-dasharray:none;stroke-opacity:1"
       d="m 21.166667,140.22916 v -2.64583 H 15.875 v 7.9375 h 5.291667 V 142.875"
       id="path8184"
       sodipodi:nodetypes="cccccc" />
    <path
       style="fill:#ffffff;fill-opacity:1;fill-rule:nonzero;stroke:#000000;stroke-width:0.307094;stroke-linecap:butt;stroke-linejoin:miter;stroke-miterlimit:4;stroke-opacity:1"
       d="m 17.943411,141.47766 c 0,1.13 -0.916394,2.04777 -2.046385,2.04777 -1.13137,0 -2.047766,-0.91777 -2.047766,-2.04777 0,-1.13137 0.916396,-2.04776 2.047766,-2.04776 1.129991,0 2.046385,0.91639 2.046385,2.04776 z m 0,0"
       id="path933" />
    <path
       style="fill:none;stroke:#000000;stroke-width:0.264583;stroke-linecap:butt;stroke-linejoin:miter;stroke-miterlimit:4;stroke-opacity:1"
       d="m 14.809753,137.84791 v 1.05833"
       id="path937" />
    <path
       style="fill:none;stroke:#000000;stroke-width:0.264583;stroke-linecap:butt;stroke-linejoin:miter;stroke-miterlimit:4;stroke-opacity:1"
       d="M 14.280587,138.37708 H 15.33892"
       id="path939" />
    <g
       id="g9244"
       transform="translate(10.583333)">
      <path
         style="fill:none;stroke:#000000;stroke-width:0.264583;stroke-linecap:butt;stroke-linejoin:miter;stroke-miterlimit:4;stroke-dasharray:none;stroke-opacity:1"
         d="m 3.7329257,141.55208 c 0.5172752,-0.98168 1.0345514,-0.98168 1.5518275,0"
         id="path935" />
      <path
         style="fill:none;stroke:#000000;stroke-width:0.264583;stroke-linecap:butt;stroke-linejoin:miter;stroke-miterlimit:4;stroke-dasharray:none;stroke-opacity:1"
         d="m 5.2847532,141.55208 c 0.5172751,0.98168 1.0345513,0.98168 1.5518275,0"
         id="path941" />
    </g>
    <rect
       style="fill:#ffffff;stroke:#000000;stroke-width:0.185208;stroke-miterlimit:4;stroke-dasharray:none"
       id="rect8919"
       width="5.2916665"
       height="5.2916665"
       x="39.6875"
       y="138.90627" />
    <path
       style="fill:none;stroke:#000000;stroke-width:0.264583px;stroke-linecap:butt;stroke-linejoin:miter;stroke-opacity:1"
       d="m 41.010417,140.22918 h 2.645834 v 0"
       id="path8976" />
    <path
       style="fill:none;stroke:#000000;stroke-width:0.264583px;stroke-linecap:butt;stroke-linejoin:miter;stroke-opacity:1"
       d="m 42.333334,140.22918 v 2.64584"
       id="path8978" />
    <path
       style="fill:none;stroke:#000000;stroke-width:0.264583px;stroke-linecap:butt;stroke-linejoin:miter;stroke-opacity:1"
       d="m 41.010417,142.87502 h 2.645834"
       id="path8980" />
    <path
       style="fill:none;stroke:#000000;stroke-width:0.264583;stroke-linecap:butt;stroke-linejoin:miter;stroke-miterlimit:4;stroke-dasharray:none;stroke-opacity:1"
       d="m 55.5625,134.93751 v 6.61458"
       id="path901"
       sodipodi:nodetypes="cc" />
    <path
       style="fill:none;stroke:#000000;stroke-width:0.185208;stroke-linecap:butt;stroke-linejoin:miter;stroke-miterlimit:4;stroke-dasharray:none;stroke-opacity:1;marker-start:url(#Arrow1Mstart-6);marker-end:url(#Arrow1Mend-2)"
       d="m 71.4375,134.93749 h 15.875"
       id="path16807-6"
       sodipodi:nodetypes="cc" />
    <path
       style="fill:none;stroke:#000000;stroke-width:0.185208;stroke-linecap:butt;stroke-linejoin:miter;stroke-miterlimit:4;stroke-dasharray:none;stroke-opacity:1;marker-start:url(#Arrow1Mstart-6-7);marker-end:url(#Arrow1Mend-2-8)"
       d="m 78.052083,141.55207 v -5.29166"
       id="path16807-6-0"
       sodipodi:nodetypes="cc" />
    <path
       style="fill:none;stroke:#000000;stroke-width:0.264583px;stroke-linecap:butt;stroke-linejoin:miter;stroke-opacity:1"
       d="m 44.979167,140.22917 5.291666,1e-5"
       id="path7500-7-6"
       sodipodi:nodetypes="cc" />
    <path
       style="fill:none;stroke:#000000;stroke-width:0.264583px;stroke-linecap:butt;stroke-linejoin:miter;stroke-opacity:1"
       d="m 50.270833,142.875 -5.291666,1e-5"
       id="path7502-5-4"
       sodipodi:nodetypes="cc" />
    <path
       style="fill:none;stroke:#000000;stroke-width:0.185208;stroke-linecap:butt;stroke-linejoin:miter;stroke-miterlimit:4;stroke-dasharray:none;stroke-opacity:1;marker-start:url(#StopL);marker-end:url(#StopL)"
       d="M 50.270834,140.22918 H 66.145833"
       id="path7500-7-30"
       sodipodi:nodetypes="cc" />
    <path
       style="fill:none;stroke:#000000;stroke-width:0.264583px;stroke-linecap:butt;stroke-linejoin:miter;stroke-opacity:1"
       d="m 66.145833,142.87501 -15.875,-1e-5"
       id="path7502-5-9"
       sodipodi:nodetypes="cc" />
    <path
       style="fill:none;stroke:#000000;stroke-width:0.185208;stroke-linecap:butt;stroke-linejoin:miter;stroke-miterlimit:4;stroke-dasharray:none;stroke-opacity:1;marker-start:url(#DotS-3);marker-end:url(#DotS-3)"
       d="M 71.437501,140.22916 H 87.3125"
       id="path7500-7-30-9"
       sodipodi:nodetypes="cc" />
    <path
       style="fill:none;stroke:#000000;stroke-width:0.264583px;stroke-linecap:butt;stroke-linejoin:miter;stroke-opacity:1;marker-start:url(#DotS-3);marker-end:url(#DotS-3)"
       d="M 87.3125,142.87499 H 71.4375"
       id="path7502-5-9-9"
       sodipodi:nodetypes="cc" />
    <path
       style="fill:none;stroke:#000000;stroke-width:0.264583px;stroke-linecap:butt;stroke-linejoin:miter;stroke-opacity:1;marker-end:url(#DotS-6)"
       d="m 66.145834,140.22917 5.291667,-1e-5"
       id="path7500-7-30-3"
       sodipodi:nodetypes="cc" />
    <path
       style="fill:none;stroke:#000000;stroke-width:0.264583px;stroke-linecap:butt;stroke-linejoin:miter;stroke-opacity:1;marker-start:url(#DotS-3-1)"
       d="m 71.437501,142.875 -5.291667,1e-5"
       id="path7502-5-9-3"
       sodipodi:nodetypes="cc" />
    <text
       xml:space="preserve"
       style="font-style:normal;font-weight:normal;font-size:10.5833px;line-height:1.25;font-family:sans-serif;fill:#000000;fill-opacity:1;stroke:none;stroke-width:0.264583"
       x="25.135416"
       y="148.16667"
       id="text25785"><tspan
         sodipodi:role="line"
         id="tspan25783"
         style="stroke-width:0.264583"
         x="25.135416"
         y="148.16667"></tspan></text>
    <path
       sodipodi:type="star"
       style="fill:#ffffff;stroke:#000000;stroke-width:0.7;stroke-miterlimit:4;stroke-dasharray:none"
       id="path37330"
       inkscape:flatsided="false"
       sodipodi:sides="3"
       sodipodi:cx="228.23668"
       sodipodi:cy="6.2396345"
       sodipodi:r1="5"
       sodipodi:r2="2.5"
       sodipodi:arg1="1.5707963"
       sodipodi:arg2="2.6179939"
       inkscape:rounded="0"
       inkscape:randomized="0"
       d="m 228.23668,11.239635 -2.16506,-3.7500005 -2.16507,-3.7499999 4.33013,-10e-8 4.33013,-1e-7 -2.16507,3.7500002 z"
       transform="matrix(0.31750063,0,0,0.31750063,-16.90279,131.36892)"
       inkscape:transform-center-y="0.39687867" />
    <path
       style="fill:none;stroke:#000000;stroke-width:0.264583px;stroke-linecap:butt;stroke-linejoin:miter;stroke-opacity:1"
       d="m 55.5625,134.93751 v -2.38125"
       id="path37558"
       sodipodi:nodetypes="cc" />
    <path
       style="fill:none;stroke:#000000;stroke-width:0.264583px;stroke-linecap:butt;stroke-linejoin:miter;stroke-opacity:1"
       d="m 75.40625,140.22916 v -2.64583"
       id="path51464"
       sodipodi:nodetypes="cc" />
    <rect
       style="fill:#ffffff;stroke:#000000;stroke-width:0.264583;stroke-miterlimit:4;stroke-dasharray:none;paint-order:normal"
       id="rect53168"
       width="2.1166677"
       height="1.0583147"
       x="74.347916"
       y="136.52496"
       ry="0.26457658" />
    <g
       id="g62666"
       transform="matrix(0.35277777,0,0,0.35277777,26.925412,131.96357)">
      <path
         d="m 171.176,30.93 h -41.25"
         style="fill:none;stroke:#000000;stroke-width:0.749999;stroke-linecap:butt;stroke-linejoin:miter;stroke-miterlimit:4;stroke-dasharray:none;stroke-opacity:1"
         id="path62668" />
    </g>
    <path
       style="fill:none;stroke:#000000;stroke-width:0.264583px;stroke-linecap:butt;stroke-linejoin:miter;stroke-opacity:1"
       d="M 87.3125,142.87499 H 72.760418"
       id="path7502-5-9-4"
       sodipodi:nodetypes="cc" />
    <text
       xml:space="preserve"
       style="font-style:normal;font-variant:normal;font-weight:normal;font-stretch:normal;font-size:1.76389px;line-height:1.25;font-family:'Droid Serif';-inkscape-font-specification:'Droid Serif, Normal';font-variant-ligatures:normal;font-variant-caps:normal;font-variant-numeric:normal;font-variant-east-asian:normal;text-align:center;text-anchor:middle;fill:#000000;fill-opacity:1;stroke:none;stroke-width:0.264583"
       x="79.375008"
       y="146.05005"
       id="text22261-6-4-4"><tspan
         sodipodi:role="line"
         id="tspan22259-2-7-0"
         style="font-style:normal;font-variant:normal;font-weight:normal;font-stretch:normal;font-size:1.76389px;font-family:'Droid Serif';-inkscape-font-specification:'Droid Serif, Normal';font-variant-ligatures:normal;font-variant-caps:normal;font-variant-numeric:normal;font-variant-east-asian:normal;text-align:center;text-anchor:middle;stroke-width:0.264583"
         x="79.375008"
         y="146.05005">Tornillo Capacitivo</tspan></text>
    <path
       style="fill:none;stroke:#000000;stroke-width:0.264583px;stroke-linecap:butt;stroke-linejoin:miter;stroke-opacity:1;marker-start:url(#DotS-3);marker-end:url(#DotS)"
       d="m 87.3125,140.22914 h 2.645834"
       id="path71674" />
    <path
       style="fill:none;stroke:#000000;stroke-width:0.264583px;stroke-linecap:butt;stroke-linejoin:miter;stroke-opacity:1;marker-start:url(#DotS-3);marker-end:url(#DotS)"
       d="m 87.3125,142.87497 h 2.645834"
       id="path71676" />
    <text
       xml:space="preserve"
       style="font-style:normal;font-variant:normal;font-weight:normal;font-stretch:normal;font-size:2.82222px;line-height:1.25;font-family:C059;-inkscape-font-specification:'C059, Normal';font-variant-ligatures:normal;font-variant-caps:normal;font-variant-numeric:normal;font-variant-east-asian:normal;fill:#000000;fill-opacity:1;stroke:none;stroke-width:0.264583"
       x="97.10923"
       y="142.27621"
       id="text20915-8"><tspan
         sodipodi:role="line"
         id="tspan20913-8"
         style="font-style:normal;font-variant:normal;font-weight:normal;font-stretch:normal;font-family:'Liberation Serif';-inkscape-font-specification:'Liberation Serif, Normal';font-variant-ligatures:normal;font-variant-caps:normal;font-variant-numeric:normal;font-variant-east-asian:normal;baseline-shift:baseline;stroke-width:0.264583"
         x="97.10923"
         y="142.27621">Z<tspan
   style="font-size:65%;baseline-shift:sub"
   id="tspan20309">L</tspan></tspan></text>
    <path
       style="fill:none;stroke:#000000;stroke-width:0.264583;stroke-linecap:butt;stroke-linejoin:miter;stroke-miterlimit:4;stroke-dasharray:none;stroke-opacity:1"
       d="m 95.250012,138.64164 -0.0022,0.38484 0.844048,0.42203 -1.688095,0.84404 1.688095,0.84403 -1.688095,0.84407 1.688095,0.84403 -1.688095,0.84404 0.844047,0.42203 0.0022,0.37172"
       id="path873" />
    <path
       style="fill:none;stroke:#000000;stroke-width:0.185208;stroke-linecap:butt;stroke-linejoin:miter;stroke-miterlimit:4;stroke-dasharray:none;stroke-opacity:1"
       d="m 89.958335,140.22914 v -2.64584 h 5.291666 v 1.32292"
       id="path72763" />
    <path
       style="fill:none;stroke:#000000;stroke-width:0.185208;stroke-linecap:butt;stroke-linejoin:miter;stroke-miterlimit:4;stroke-dasharray:none;stroke-opacity:1"
       d="m 89.958334,142.87497 v 2.64583 H 95.25 v -1.32291"
       id="path72765" />
  </g>
</svg>
