<?xml version="1.0" encoding="utf-8" standalone="no"?>
<!DOCTYPE svg PUBLIC "-//W3C//DTD SVG 1.1//EN"
  "http://www.w3.org/Graphics/SVG/1.1/DTD/svg11.dtd">
<svg xmlns:xlink="http://www.w3.org/1999/xlink" width="691.2pt" height="326.16pt" viewBox="0 0 691.2 326.16" xmlns="http://www.w3.org/2000/svg" version="1.1">
 <metadata>
  <rdf:RDF xmlns:dc="http://purl.org/dc/elements/1.1/" xmlns:cc="http://creativecommons.org/ns#" xmlns:rdf="http://www.w3.org/1999/02/22-rdf-syntax-ns#">
   <cc:Work>
    <dc:type rdf:resource="http://purl.org/dc/dcmitype/StillImage"/>
    <dc:date>2022-04-02T21:55:31.611695</dc:date>
    <dc:format>image/svg+xml</dc:format>
    <dc:creator>
     <cc:Agent>
      <dc:title>Matplotlib v3.5.1, https://matplotlib.org/</dc:title>
     </cc:Agent>
    </dc:creator>
   </cc:Work>
  </rdf:RDF>
 </metadata>
 <defs>
  <style type="text/css">*{stroke-linejoin: round; stroke-linecap: butt}</style>
 </defs>
 <g id="figure_1">
  <g id="patch_1">
   <path d="M 0 326.16 
L 691.2 326.16 
L 691.2 0 
L 0 0 
z
" style="fill: #ffffff"/>
  </g>
  <g id="axes_1">
   <g id="patch_2">
    <path d="M 66.99 286.56025 
L 675 286.56025 
L 675 25.368 
L 66.99 25.368 
z
" style="fill: #ffffff"/>
   </g>
   <g id="matplotlib.axis_1">
    <g id="xtick_1">
     <g id="line2d_1">
      <defs>
       <path id="mac2cf094b1" d="M 0 0 
L 0 3.5 
" style="stroke: #000000; stroke-width: 0.8"/>
      </defs>
      <g>
       <use xlink:href="#mac2cf094b1" x="644.5995" y="286.56025" style="stroke: #000000; stroke-width: 0.8"/>
      </g>
     </g>
     <g id="text_1">
      <!-- 0.0 -->
      <g transform="translate(636.647937 301.158688)scale(0.1 -0.1)">
       <defs>
        <path id="DejaVuSans-30" d="M 2034 4250 
Q 1547 4250 1301 3770 
Q 1056 3291 1056 2328 
Q 1056 1369 1301 889 
Q 1547 409 2034 409 
Q 2525 409 2770 889 
Q 3016 1369 3016 2328 
Q 3016 3291 2770 3770 
Q 2525 4250 2034 4250 
z
M 2034 4750 
Q 2819 4750 3233 4129 
Q 3647 3509 3647 2328 
Q 3647 1150 3233 529 
Q 2819 -91 2034 -91 
Q 1250 -91 836 529 
Q 422 1150 422 2328 
Q 422 3509 836 4129 
Q 1250 4750 2034 4750 
z
" transform="scale(0.015625)"/>
        <path id="DejaVuSans-2e" d="M 684 794 
L 1344 794 
L 1344 0 
L 684 0 
L 684 794 
z
" transform="scale(0.015625)"/>
       </defs>
       <use xlink:href="#DejaVuSans-30"/>
       <use xlink:href="#DejaVuSans-2e" x="63.623047"/>
       <use xlink:href="#DejaVuSans-30" x="95.410156"/>
      </g>
     </g>
    </g>
    <g id="xtick_2">
     <g id="line2d_2">
      <g>
       <use xlink:href="#mac2cf094b1" x="568.59825" y="286.56025" style="stroke: #000000; stroke-width: 0.8"/>
      </g>
     </g>
     <g id="text_2">
      <!-- 2.5 -->
      <g transform="translate(560.646687 301.158688)scale(0.1 -0.1)">
       <defs>
        <path id="DejaVuSans-32" d="M 1228 531 
L 3431 531 
L 3431 0 
L 469 0 
L 469 531 
Q 828 903 1448 1529 
Q 2069 2156 2228 2338 
Q 2531 2678 2651 2914 
Q 2772 3150 2772 3378 
Q 2772 3750 2511 3984 
Q 2250 4219 1831 4219 
Q 1534 4219 1204 4116 
Q 875 4013 500 3803 
L 500 4441 
Q 881 4594 1212 4672 
Q 1544 4750 1819 4750 
Q 2544 4750 2975 4387 
Q 3406 4025 3406 3419 
Q 3406 3131 3298 2873 
Q 3191 2616 2906 2266 
Q 2828 2175 2409 1742 
Q 1991 1309 1228 531 
z
" transform="scale(0.015625)"/>
        <path id="DejaVuSans-35" d="M 691 4666 
L 3169 4666 
L 3169 4134 
L 1269 4134 
L 1269 2991 
Q 1406 3038 1543 3061 
Q 1681 3084 1819 3084 
Q 2600 3084 3056 2656 
Q 3513 2228 3513 1497 
Q 3513 744 3044 326 
Q 2575 -91 1722 -91 
Q 1428 -91 1123 -41 
Q 819 9 494 109 
L 494 744 
Q 775 591 1075 516 
Q 1375 441 1709 441 
Q 2250 441 2565 725 
Q 2881 1009 2881 1497 
Q 2881 1984 2565 2268 
Q 2250 2553 1709 2553 
Q 1456 2553 1204 2497 
Q 953 2441 691 2322 
L 691 4666 
z
" transform="scale(0.015625)"/>
       </defs>
       <use xlink:href="#DejaVuSans-32"/>
       <use xlink:href="#DejaVuSans-2e" x="63.623047"/>
       <use xlink:href="#DejaVuSans-35" x="95.410156"/>
      </g>
     </g>
    </g>
    <g id="xtick_3">
     <g id="line2d_3">
      <g>
       <use xlink:href="#mac2cf094b1" x="492.597" y="286.56025" style="stroke: #000000; stroke-width: 0.8"/>
      </g>
     </g>
     <g id="text_3">
      <!-- 5.0 -->
      <g transform="translate(484.645437 301.158688)scale(0.1 -0.1)">
       <use xlink:href="#DejaVuSans-35"/>
       <use xlink:href="#DejaVuSans-2e" x="63.623047"/>
       <use xlink:href="#DejaVuSans-30" x="95.410156"/>
      </g>
     </g>
    </g>
    <g id="xtick_4">
     <g id="line2d_4">
      <g>
       <use xlink:href="#mac2cf094b1" x="416.59575" y="286.56025" style="stroke: #000000; stroke-width: 0.8"/>
      </g>
     </g>
     <g id="text_4">
      <!-- 7.5 -->
      <g transform="translate(408.644187 301.158688)scale(0.1 -0.1)">
       <defs>
        <path id="DejaVuSans-37" d="M 525 4666 
L 3525 4666 
L 3525 4397 
L 1831 0 
L 1172 0 
L 2766 4134 
L 525 4134 
L 525 4666 
z
" transform="scale(0.015625)"/>
       </defs>
       <use xlink:href="#DejaVuSans-37"/>
       <use xlink:href="#DejaVuSans-2e" x="63.623047"/>
       <use xlink:href="#DejaVuSans-35" x="95.410156"/>
      </g>
     </g>
    </g>
    <g id="xtick_5">
     <g id="line2d_5">
      <g>
       <use xlink:href="#mac2cf094b1" x="340.5945" y="286.56025" style="stroke: #000000; stroke-width: 0.8"/>
      </g>
     </g>
     <g id="text_5">
      <!-- 10.0 -->
      <g transform="translate(329.461687 301.158688)scale(0.1 -0.1)">
       <defs>
        <path id="DejaVuSans-31" d="M 794 531 
L 1825 531 
L 1825 4091 
L 703 3866 
L 703 4441 
L 1819 4666 
L 2450 4666 
L 2450 531 
L 3481 531 
L 3481 0 
L 794 0 
L 794 531 
z
" transform="scale(0.015625)"/>
       </defs>
       <use xlink:href="#DejaVuSans-31"/>
       <use xlink:href="#DejaVuSans-30" x="63.623047"/>
       <use xlink:href="#DejaVuSans-2e" x="127.246094"/>
       <use xlink:href="#DejaVuSans-30" x="159.033203"/>
      </g>
     </g>
    </g>
    <g id="xtick_6">
     <g id="line2d_6">
      <g>
       <use xlink:href="#mac2cf094b1" x="264.59325" y="286.56025" style="stroke: #000000; stroke-width: 0.8"/>
      </g>
     </g>
     <g id="text_6">
      <!-- 12.5 -->
      <g transform="translate(253.460438 301.158688)scale(0.1 -0.1)">
       <use xlink:href="#DejaVuSans-31"/>
       <use xlink:href="#DejaVuSans-32" x="63.623047"/>
       <use xlink:href="#DejaVuSans-2e" x="127.246094"/>
       <use xlink:href="#DejaVuSans-35" x="159.033203"/>
      </g>
     </g>
    </g>
    <g id="xtick_7">
     <g id="line2d_7">
      <g>
       <use xlink:href="#mac2cf094b1" x="188.592" y="286.56025" style="stroke: #000000; stroke-width: 0.8"/>
      </g>
     </g>
     <g id="text_7">
      <!-- 15.0 -->
      <g transform="translate(177.459187 301.158688)scale(0.1 -0.1)">
       <use xlink:href="#DejaVuSans-31"/>
       <use xlink:href="#DejaVuSans-35" x="63.623047"/>
       <use xlink:href="#DejaVuSans-2e" x="127.246094"/>
       <use xlink:href="#DejaVuSans-30" x="159.033203"/>
      </g>
     </g>
    </g>
    <g id="xtick_8">
     <g id="line2d_8">
      <g>
       <use xlink:href="#mac2cf094b1" x="112.59075" y="286.56025" style="stroke: #000000; stroke-width: 0.8"/>
      </g>
     </g>
     <g id="text_8">
      <!-- 17.5 -->
      <g transform="translate(101.457938 301.158688)scale(0.1 -0.1)">
       <use xlink:href="#DejaVuSans-31"/>
       <use xlink:href="#DejaVuSans-37" x="63.623047"/>
       <use xlink:href="#DejaVuSans-2e" x="127.246094"/>
       <use xlink:href="#DejaVuSans-35" x="159.033203"/>
      </g>
     </g>
    </g>
    <g id="text_9">
     <!-- x [cm] -->
     <g transform="translate(354.925469 314.836813)scale(0.1 -0.1)">
      <defs>
       <path id="DejaVuSans-78" d="M 3513 3500 
L 2247 1797 
L 3578 0 
L 2900 0 
L 1881 1375 
L 863 0 
L 184 0 
L 1544 1831 
L 300 3500 
L 978 3500 
L 1906 2253 
L 2834 3500 
L 3513 3500 
z
" transform="scale(0.015625)"/>
       <path id="DejaVuSans-20" transform="scale(0.015625)"/>
       <path id="DejaVuSans-5b" d="M 550 4863 
L 1875 4863 
L 1875 4416 
L 1125 4416 
L 1125 -397 
L 1875 -397 
L 1875 -844 
L 550 -844 
L 550 4863 
z
" transform="scale(0.015625)"/>
       <path id="DejaVuSans-63" d="M 3122 3366 
L 3122 2828 
Q 2878 2963 2633 3030 
Q 2388 3097 2138 3097 
Q 1578 3097 1268 2742 
Q 959 2388 959 1747 
Q 959 1106 1268 751 
Q 1578 397 2138 397 
Q 2388 397 2633 464 
Q 2878 531 3122 666 
L 3122 134 
Q 2881 22 2623 -34 
Q 2366 -91 2075 -91 
Q 1284 -91 818 406 
Q 353 903 353 1747 
Q 353 2603 823 3093 
Q 1294 3584 2113 3584 
Q 2378 3584 2631 3529 
Q 2884 3475 3122 3366 
z
" transform="scale(0.015625)"/>
       <path id="DejaVuSans-6d" d="M 3328 2828 
Q 3544 3216 3844 3400 
Q 4144 3584 4550 3584 
Q 5097 3584 5394 3201 
Q 5691 2819 5691 2113 
L 5691 0 
L 5113 0 
L 5113 2094 
Q 5113 2597 4934 2840 
Q 4756 3084 4391 3084 
Q 3944 3084 3684 2787 
Q 3425 2491 3425 1978 
L 3425 0 
L 2847 0 
L 2847 2094 
Q 2847 2600 2669 2842 
Q 2491 3084 2119 3084 
Q 1678 3084 1418 2786 
Q 1159 2488 1159 1978 
L 1159 0 
L 581 0 
L 581 3500 
L 1159 3500 
L 1159 2956 
Q 1356 3278 1631 3431 
Q 1906 3584 2284 3584 
Q 2666 3584 2933 3390 
Q 3200 3197 3328 2828 
z
" transform="scale(0.015625)"/>
       <path id="DejaVuSans-5d" d="M 1947 4863 
L 1947 -844 
L 622 -844 
L 622 -397 
L 1369 -397 
L 1369 4416 
L 622 4416 
L 622 4863 
L 1947 4863 
z
" transform="scale(0.015625)"/>
      </defs>
      <use xlink:href="#DejaVuSans-78"/>
      <use xlink:href="#DejaVuSans-20" x="59.179688"/>
      <use xlink:href="#DejaVuSans-5b" x="90.966797"/>
      <use xlink:href="#DejaVuSans-63" x="129.980469"/>
      <use xlink:href="#DejaVuSans-6d" x="184.960938"/>
      <use xlink:href="#DejaVuSans-5d" x="282.373047"/>
     </g>
    </g>
   </g>
   <g id="matplotlib.axis_2">
    <g id="ytick_1">
     <g id="line2d_9">
      <defs>
       <path id="m8fe4f48e8b" d="M 0 0 
L -3.5 0 
" style="stroke: #000000; stroke-width: 0.8"/>
      </defs>
      <g>
       <use xlink:href="#m8fe4f48e8b" x="66.99" y="274.687875" style="stroke: #000000; stroke-width: 0.8"/>
      </g>
     </g>
     <g id="text_10">
      <!-- 0 -->
      <g transform="translate(53.6275 278.487094)scale(0.1 -0.1)">
       <use xlink:href="#DejaVuSans-30"/>
      </g>
     </g>
    </g>
    <g id="ytick_2">
     <g id="line2d_10">
      <g>
       <use xlink:href="#m8fe4f48e8b" x="66.99" y="244.034748" style="stroke: #000000; stroke-width: 0.8"/>
      </g>
     </g>
     <g id="text_11">
      <!-- 2 -->
      <g transform="translate(53.6275 247.833967)scale(0.1 -0.1)">
       <use xlink:href="#DejaVuSans-32"/>
      </g>
     </g>
    </g>
    <g id="ytick_3">
     <g id="line2d_11">
      <g>
       <use xlink:href="#m8fe4f48e8b" x="66.99" y="213.381622" style="stroke: #000000; stroke-width: 0.8"/>
      </g>
     </g>
     <g id="text_12">
      <!-- 4 -->
      <g transform="translate(53.6275 217.180841)scale(0.1 -0.1)">
       <defs>
        <path id="DejaVuSans-34" d="M 2419 4116 
L 825 1625 
L 2419 1625 
L 2419 4116 
z
M 2253 4666 
L 3047 4666 
L 3047 1625 
L 3713 1625 
L 3713 1100 
L 3047 1100 
L 3047 0 
L 2419 0 
L 2419 1100 
L 313 1100 
L 313 1709 
L 2253 4666 
z
" transform="scale(0.015625)"/>
       </defs>
       <use xlink:href="#DejaVuSans-34"/>
      </g>
     </g>
    </g>
    <g id="ytick_4">
     <g id="line2d_12">
      <g>
       <use xlink:href="#m8fe4f48e8b" x="66.99" y="182.728495" style="stroke: #000000; stroke-width: 0.8"/>
      </g>
     </g>
     <g id="text_13">
      <!-- 6 -->
      <g transform="translate(53.6275 186.527714)scale(0.1 -0.1)">
       <defs>
        <path id="DejaVuSans-36" d="M 2113 2584 
Q 1688 2584 1439 2293 
Q 1191 2003 1191 1497 
Q 1191 994 1439 701 
Q 1688 409 2113 409 
Q 2538 409 2786 701 
Q 3034 994 3034 1497 
Q 3034 2003 2786 2293 
Q 2538 2584 2113 2584 
z
M 3366 4563 
L 3366 3988 
Q 3128 4100 2886 4159 
Q 2644 4219 2406 4219 
Q 1781 4219 1451 3797 
Q 1122 3375 1075 2522 
Q 1259 2794 1537 2939 
Q 1816 3084 2150 3084 
Q 2853 3084 3261 2657 
Q 3669 2231 3669 1497 
Q 3669 778 3244 343 
Q 2819 -91 2113 -91 
Q 1303 -91 875 529 
Q 447 1150 447 2328 
Q 447 3434 972 4092 
Q 1497 4750 2381 4750 
Q 2619 4750 2861 4703 
Q 3103 4656 3366 4563 
z
" transform="scale(0.015625)"/>
       </defs>
       <use xlink:href="#DejaVuSans-36"/>
      </g>
     </g>
    </g>
    <g id="ytick_5">
     <g id="line2d_13">
      <g>
       <use xlink:href="#m8fe4f48e8b" x="66.99" y="152.075369" style="stroke: #000000; stroke-width: 0.8"/>
      </g>
     </g>
     <g id="text_14">
      <!-- 8 -->
      <g transform="translate(53.6275 155.874588)scale(0.1 -0.1)">
       <defs>
        <path id="DejaVuSans-38" d="M 2034 2216 
Q 1584 2216 1326 1975 
Q 1069 1734 1069 1313 
Q 1069 891 1326 650 
Q 1584 409 2034 409 
Q 2484 409 2743 651 
Q 3003 894 3003 1313 
Q 3003 1734 2745 1975 
Q 2488 2216 2034 2216 
z
M 1403 2484 
Q 997 2584 770 2862 
Q 544 3141 544 3541 
Q 544 4100 942 4425 
Q 1341 4750 2034 4750 
Q 2731 4750 3128 4425 
Q 3525 4100 3525 3541 
Q 3525 3141 3298 2862 
Q 3072 2584 2669 2484 
Q 3125 2378 3379 2068 
Q 3634 1759 3634 1313 
Q 3634 634 3220 271 
Q 2806 -91 2034 -91 
Q 1263 -91 848 271 
Q 434 634 434 1313 
Q 434 1759 690 2068 
Q 947 2378 1403 2484 
z
M 1172 3481 
Q 1172 3119 1398 2916 
Q 1625 2713 2034 2713 
Q 2441 2713 2670 2916 
Q 2900 3119 2900 3481 
Q 2900 3844 2670 4047 
Q 2441 4250 2034 4250 
Q 1625 4250 1398 4047 
Q 1172 3844 1172 3481 
z
" transform="scale(0.015625)"/>
       </defs>
       <use xlink:href="#DejaVuSans-38"/>
      </g>
     </g>
    </g>
    <g id="ytick_6">
     <g id="line2d_14">
      <g>
       <use xlink:href="#m8fe4f48e8b" x="66.99" y="121.422242" style="stroke: #000000; stroke-width: 0.8"/>
      </g>
     </g>
     <g id="text_15">
      <!-- 10 -->
      <g transform="translate(47.265 125.221461)scale(0.1 -0.1)">
       <use xlink:href="#DejaVuSans-31"/>
       <use xlink:href="#DejaVuSans-30" x="63.623047"/>
      </g>
     </g>
    </g>
    <g id="ytick_7">
     <g id="line2d_15">
      <g>
       <use xlink:href="#m8fe4f48e8b" x="66.99" y="90.769116" style="stroke: #000000; stroke-width: 0.8"/>
      </g>
     </g>
     <g id="text_16">
      <!-- 12 -->
      <g transform="translate(47.265 94.568335)scale(0.1 -0.1)">
       <use xlink:href="#DejaVuSans-31"/>
       <use xlink:href="#DejaVuSans-32" x="63.623047"/>
      </g>
     </g>
    </g>
    <g id="ytick_8">
     <g id="line2d_16">
      <g>
       <use xlink:href="#m8fe4f48e8b" x="66.99" y="60.115989" style="stroke: #000000; stroke-width: 0.8"/>
      </g>
     </g>
     <g id="text_17">
      <!-- 14 -->
      <g transform="translate(47.265 63.915208)scale(0.1 -0.1)">
       <use xlink:href="#DejaVuSans-31"/>
       <use xlink:href="#DejaVuSans-34" x="63.623047"/>
      </g>
     </g>
    </g>
    <g id="ytick_9">
     <g id="line2d_17">
      <g>
       <use xlink:href="#m8fe4f48e8b" x="66.99" y="29.462863" style="stroke: #000000; stroke-width: 0.8"/>
      </g>
     </g>
     <g id="text_18">
      <!-- 16 -->
      <g transform="translate(47.265 33.262082)scale(0.1 -0.1)">
       <use xlink:href="#DejaVuSans-31"/>
       <use xlink:href="#DejaVuSans-36" x="63.623047"/>
      </g>
     </g>
    </g>
    <g id="text_19">
     <!-- V [mV] -->
     <g transform="translate(41.185312 173.165688)rotate(-90)scale(0.1 -0.1)">
      <defs>
       <path id="DejaVuSans-56" d="M 1831 0 
L 50 4666 
L 709 4666 
L 2188 738 
L 3669 4666 
L 4325 4666 
L 2547 0 
L 1831 0 
z
" transform="scale(0.015625)"/>
      </defs>
      <use xlink:href="#DejaVuSans-56"/>
      <use xlink:href="#DejaVuSans-20" x="68.408203"/>
      <use xlink:href="#DejaVuSans-5b" x="100.195312"/>
      <use xlink:href="#DejaVuSans-6d" x="139.208984"/>
      <use xlink:href="#DejaVuSans-56" x="236.621094"/>
      <use xlink:href="#DejaVuSans-5d" x="305.029297"/>
     </g>
    </g>
   </g>
   <g id="line2d_18">
    <path d="M 73.53545 39.036958 
L 73.91949 41.498887 
L 74.761912 44.740271 
L 76.631515 60.464243 
L 77.43739 66.014762 
L 77.968687 73.143044 
L 79.608063 86.974057 
L 80.604734 103.735562 
L 82.651335 129.811732 
L 83.087352 137.568507 
L 83.954209 146.253951 
L 85.260765 163.185402 
L 86.11814 171.293162 
L 87.415397 187.965529 
L 88.262414 194.941804 
L 88.700948 202.684313 
L 89.619058 209.855492 
L 90.048714 217.381788 
L 90.896211 224.093116 
L 91.375714 230.837158 
L 93.094692 242.499556 
L 94.169096 252.45958 
L 95.158298 256.731027 
L 95.793053 260.680086 
L 97.319651 267.090729 
L 97.61312 269.541704 
L 99.384313 272.847244 
L 99.624443 273.793677 
L 100.613282 274.11122 
L 101.359299 274.012358 
L 102.068646 273.328518 
L 102.92502 272.215158 
L 103.335637 270.546608 
L 104.410666 268.365218 
L 104.82762 265.734236 
L 106.512013 258.938292 
L 106.997584 254.665697 
L 108.713199 245.427277 
L 109.200618 239.78367 
L 110.930702 228.782965 
L 110.944942 222.742364 
L 112.67699 210.22446 
L 113.18448 203.063532 
L 113.987592 195.267783 
L 114.453279 187.236614 
L 115.40847 179.159422 
L 116.148742 170.760045 
L 117.024983 162.258335 
L 117.465449 154.252474 
L 118.275508 147.088834 
L 118.774975 137.102219 
L 120.286353 122.343485 
L 120.946382 114.049087 
L 122.34349 99.319255 
L 124.819103 81.340599 
L 125.259001 75.513087 
L 126.81266 64.910092 
L 127.365644 60.304994 
L 127.992212 56.456532 
L 130.065909 48.87066 
L 130.926914 47.623476 
L 131.423869 47.97681 
L 132.370863 47.750802 
L 132.821704 48.284647 
L 133.735139 50.121804 
L 134.385208 51.753591 
L 134.834086 54.780889 
L 135.717801 59.855492 
L 136.156574 64.373549 
L 139.091329 84.962235 
L 139.63492 92.39913 
L 140.471607 98.870515 
L 140.938898 105.826044 
L 142.165485 116.818557 
L 142.243256 125.51304 
L 143.491645 131.723008 
L 143.550716 140.685629 
L 144.417442 147.942328 
L 145.81844 163.382901 
L 146.586827 171.585928 
L 146.986817 177.849972 
L 148.301779 186.276383 
L 148.464299 193.778817 
L 149.591566 201.369915 
L 150.54577 215.153057 
L 151.366708 221.529004 
L 151.798657 228.098086 
L 153.439142 239.634013 
L 154.40102 244.773557 
L 154.776695 250.003011 
L 155.711906 258.501583 
L 156.960543 261.941892 
L 157.867643 265.351915 
L 157.889079 267.9451 
L 158.820737 270.37108 
L 159.855381 271.993067 
L 160.059164 273.330884 
L 161.219355 273.876907 
L 161.363044 274.166831 
L 162.336374 273.721142 
L 163.166588 272.958663 
L 163.66073 271.428347 
L 164.396819 269.609294 
L 165.041119 267.059231 
L 166.08299 264.224126 
L 166.29416 260.754345 
L 167.321488 256.964913 
L 168.068239 252.719846 
L 168.318788 248.090402 
L 170.035549 237.228098 
L 170.853839 231.231975 
L 170.912957 225.067347 
L 172.218274 218.715074 
L 172.823599 211.246629 
L 173.129346 204.337823 
L 175.685547 180.881139 
L 175.710868 172.832649 
L 176.998983 164.825841 
L 178.300949 150.045676 
L 179.196045 141.648007 
L 179.626207 133.120523 
L 180.427726 125.000055 
L 180.903343 117.956422 
L 181.782736 109.250916 
L 182.207132 100.97463 
L 183.089341 95.945785 
L 183.535617 87.435815 
L 184.393612 80.049339 
L 185.263538 74.862081 
L 186.125019 66.220193 
L 186.148114 60.244973 
L 187.843481 50.125427 
L 188.56523 46.739748 
L 189.188251 48.978179 
L 190.055212 48.17263 
L 190.454091 46.970131 
L 191.878874 44.967139 
L 192.740039 45.455761 
L 193.18554 44.346974 
L 194.034524 43.767521 
L 194.815885 45.493898 
L 195.44229 48.039968 
L 196.552322 51.174817 
L 196.590691 57.198635 
L 197.649657 61.979506 
L 197.919974 67.628979 
L 199.006452 74.093139 
L 200.337807 88.769375 
L 200.936441 98.27185 
L 202.654139 114.443663 
L 202.679355 123.005256 
L 203.957908 132.866496 
L 204.420211 140.896703 
L 205.671235 151.404567 
L 205.739988 160.231662 
L 206.150636 167.910062 
L 207.424603 175.590265 
L 208.278621 183.645174 
L 208.762431 190.788077 
L 210.071725 205.154719 
L 210.506097 212.666889 
L 211.512902 219.201274 
L 212.781813 232.200836 
L 213.552844 238.095351 
L 213.991854 243.472948 
L 214.858259 248.74273 
L 215.385602 253.211911 
L 216.143482 257.561112 
L 217.029201 261.198878 
L 217.030425 264.642079 
L 218.277579 267.322605 
L 218.754156 269.740316 
L 220.052044 271.466465 
L 220.080836 272.905413 
L 220.933865 273.687652 
L 221.756283 274.150832 
L 221.816727 273.993262 
L 223.105036 273.47169 
L 223.165455 272.36625 
L 223.945443 270.816104 
L 224.852889 268.720275 
L 225.355188 266.23381 
L 226.148814 263.116399 
L 229.19829 246.509589 
L 229.212787 241.316319 
L 230.475355 235.837178 
L 231.372268 229.722577 
L 231.381112 223.244308 
L 232.500426 216.49858 
L 233.113448 209.508308 
L 234.694013 194.923711 
L 235.245902 187.166872 
L 236.162247 179.386372 
L 236.494642 171.425615 
L 238.219287 155.103624 
L 239.202075 137.591958 
L 240.08079 130.127668 
L 241.354383 122.321824 
L 241.387739 112.48107 
L 242.676083 105.502091 
L 242.687085 99.945696 
L 243.555797 92.570484 
L 244.048992 84.947336 
L 245.280713 78.103414 
L 245.72645 71.956788 
L 246.602724 67.911043 
L 246.608068 63.210551 
L 247.908168 58.347637 
L 247.912482 54.523815 
L 249.169632 50.771413 
L 249.620083 48.927142 
L 250.807336 45.698454 
L 250.959742 44.307794 
L 251.800027 43.885222 
L 253.114359 45.298357 
L 253.925275 47.298898 
L 256.138835 55.015504 
L 257.441452 63.089588 
L 257.885204 67.663703 
L 258.755903 72.559563 
L 259.364344 78.573178 
L 259.868216 85.005744 
L 260.918321 92.946411 
L 261.416349 100.084592 
L 262.975436 115.31148 
L 263.503514 123.168231 
L 264.296335 131.330471 
L 264.86061 140.00929 
L 265.636005 148.443948 
L 266.176522 157.568649 
L 267.858837 175.203025 
L 268.346728 183.256493 
L 269.193691 191.531052 
L 269.77806 199.494727 
L 270.520745 206.887471 
L 271.344729 213.961782 
L 271.828031 221.113425 
L 272.681852 227.624901 
L 273.132697 233.760056 
L 274.752214 244.882176 
L 275.305158 249.851767 
L 276.126831 254.379733 
L 276.61039 258.488933 
L 277.45774 262.272805 
L 278.289482 265.477992 
L 278.774504 268.214585 
L 279.581602 270.426495 
L 280.083584 272.151902 
L 280.798775 273.328989 
L 281.433347 273.999283 
L 282.23465 274.143799 
L 283.05626 273.778942 
L 284.248455 271.522594 
L 285.710482 267.292358 
L 286.180345 264.47064 
L 287.033679 261.184604 
L 287.879526 257.475466 
L 289.634564 243.966856 
L 290.498693 238.918147 
L 291.052035 233.169634 
L 293.264856 214.720067 
L 293.757514 207.455086 
L 295.109934 192.748067 
L 295.887803 185.378338 
L 297.870662 161.443625 
L 299.188196 146.19965 
L 299.95982 137.583134 
L 300.506097 129.327775 
L 301.361177 121.741567 
L 302.142199 113.279823 
L 302.670539 105.29008 
L 303.117616 96.826425 
L 303.980853 91.015564 
L 304.826739 83.168106 
L 305.294859 76.195243 
L 307.628244 60.258709 
L 308.292301 56.75225 
L 308.770183 51.431028 
L 310.087806 44.499345 
L 310.90318 41.930454 
L 311.518876 39.321094 
L 312.261191 37.71988 
L 313.095561 37.240375 
L 313.672067 38.54804 
L 314.436604 39.025924 
L 314.882274 42.417829 
L 315.689879 44.508608 
L 316.18723 48.071803 
L 316.885843 51.717978 
L 317.656797 57.435369 
L 318.352525 61.698773 
L 318.849941 68.472628 
L 320.535898 83.194431 
L 321.059504 91.101281 
L 321.846869 99.361908 
L 322.39594 107.048694 
L 325.325306 142.122648 
L 326.633278 160.089546 
L 327.484763 168.701168 
L 327.939585 176.834017 
L 329.648858 192.788882 
L 330.122696 200.744692 
L 330.963116 207.973701 
L 331.737288 215.648824 
L 332.280412 222.48382 
L 333.121167 229.030942 
L 334.898934 246.348716 
L 336.624093 255.940172 
L 337.070672 260.001418 
L 337.928209 263.528004 
L 338.787315 266.53081 
L 339.241102 269.074359 
L 340.030331 271.117256 
L 340.947159 272.634501 
L 341.410913 273.636887 
L 341.886864 274.139468 
L 342.72471 274.022979 
L 343.598149 273.479005 
L 344.40717 272.343217 
L 344.89459 270.814389 
L 345.337468 268.617159 
L 346.203625 266.148574 
L 346.6448 263.064639 
L 347.560823 259.560396 
L 348.343057 255.422328 
L 348.813209 251.150337 
L 349.639191 246.386582 
L 350.11859 241.455004 
L 350.984347 236.04471 
L 351.467845 229.99631 
L 353.100039 217.251015 
L 353.689618 210.126689 
L 354.374575 203.472731 
L 354.983302 196.218953 
L 355.845903 189.017016 
L 356.52665 181.351736 
L 357.046195 173.624621 
L 361.84508 115.361957 
L 363.474115 99.119343 
L 364.016248 91.2724 
L 364.835062 83.872337 
L 365.343429 77.168014 
L 366.146232 70.014994 
L 366.647086 64.262222 
L 368.294843 54.592238 
L 368.821671 49.970888 
L 369.608364 47.628989 
L 370.125128 44.307794 
L 370.988496 45.302287 
L 371.071855 43.100909 
L 372.245282 38.826552 
L 372.737817 40.210658 
L 373.526901 39.199355 
L 374.386826 39.490452 
L 375.298211 41.15031 
L 375.345504 44.347735 
L 376.194973 47.385039 
L 376.656287 51.58628 
L 377.517541 56.011073 
L 378.377266 61.037493 
L 379.238135 67.088083 
L 379.379542 73.853496 
L 380.526712 81.375323 
L 381.432431 88.819441 
L 381.872022 96.574412 
L 382.694842 106.179681 
L 383.575755 112.71034 
L 384.034625 121.751404 
L 384.551436 128.421146 
L 385.355257 135.996654 
L 386.125088 144.579268 
L 387.388008 161.668363 
L 388.097086 169.020933 
L 388.402802 169.113226 
L 388.402802 169.113226 
" clip-path="url(#pf18516f370)" style="fill: none; stroke: #1f77b4; stroke-width: 1.5; stroke-linecap: square"/>
   </g>
   <g id="line2d_19">
    <path d="M 675 37.26612 
L 674.57435 37.27289 
L 674.148701 37.511819 
L 673.662244 38.068534 
L 673.11498 39.054736 
L 672.446103 40.77295 
L 671.716418 43.281363 
L 670.865119 47.024919 
L 669.892205 52.344208 
L 668.797678 59.589703 
L 667.520729 69.60842 
L 666.061359 82.904337 
L 664.297954 101.173197 
L 662.048092 127.049467 
L 654.082364 221.053778 
L 652.379766 237.440364 
L 650.920396 249.46791 
L 649.643447 258.230986 
L 648.54892 264.309383 
L 647.576007 268.533724 
L 646.724707 271.283952 
L 645.995023 272.920942 
L 645.386952 273.769715 
L 644.900495 274.10881 
L 644.474845 274.156853 
L 644.049196 273.972694 
L 643.562739 273.47838 
L 643.015476 272.561944 
L 642.407405 271.099773 
L 641.67772 268.736534 
L 640.826421 265.157847 
L 639.853507 260.019463 
L 638.75898 252.965695 
L 637.482031 243.151706 
L 636.022661 230.06038 
L 634.320063 212.648783 
L 632.191815 188.448194 
L 628.421776 142.448684 
L 625.320615 105.811203 
L 623.313981 84.628552 
L 621.67219 69.555011 
L 620.273627 58.676676 
L 619.057486 50.876644 
L 618.023765 45.559831 
L 617.111659 41.923556 
L 616.321167 39.599133 
L 615.652289 38.244712 
L 615.105026 37.559154 
L 614.618569 37.271093 
L 614.192919 37.267767 
L 613.76727 37.496609 
L 613.280813 38.041835 
L 612.733549 39.015194 
L 612.064671 40.717889 
L 611.334986 43.20968 
L 610.483687 46.934371 
L 609.510774 52.232978 
L 608.416247 59.456576 
L 607.139298 69.451944 
L 605.679928 82.724575 
L 603.916523 100.970856 
L 601.727468 126.102094 
L 593.579319 222.109817 
L 591.876721 238.355382 
L 590.417351 250.239074 
L 589.140402 258.861603 
L 588.045875 264.810588 
L 587.072961 268.914393 
L 586.282469 271.397139 
L 585.552784 272.995214 
L 584.944713 273.811221 
L 584.458257 274.123977 
L 584.032607 274.14894 
L 583.606958 273.941716 
L 583.120501 273.42112 
L 582.573237 272.475294 
L 581.904359 270.805877 
L 581.174674 268.34974 
L 580.323375 264.665523 
L 579.350462 259.411306 
L 578.255935 252.234723 
L 576.978986 242.289517 
L 575.519616 229.066955 
L 573.817018 211.531315 
L 571.627963 186.502235 
L 567.189046 132.312815 
L 564.513534 101.30663 
L 562.628515 81.845307 
L 561.047531 67.677831 
L 559.709775 57.531913 
L 558.493633 49.951017 
L 557.459913 44.832246 
L 556.547807 41.377772 
L 555.757315 39.214941 
L 555.088437 37.999324 
L 554.541173 37.428246 
L 554.054716 37.242314 
L 553.629067 37.32842 
L 553.203417 37.646575 
L 552.716961 38.293502 
L 552.10889 39.524611 
L 551.440012 41.415321 
L 550.64952 44.362008 
L 549.737414 48.695538 
L 548.703693 54.768147 
L 547.548359 62.931328 
L 546.210603 74.046788 
L 544.629619 89.200003 
L 542.744599 109.575344 
L 540.190702 139.842322 
L 534.474836 208.327539 
L 532.52901 228.58993 
L 530.948026 242.896065 
L 529.549463 253.600949 
L 528.333321 261.235064 
L 527.299601 266.401886 
L 526.387495 269.900437 
L 525.597003 272.102421 
L 524.928125 273.351652 
L 524.380861 273.950442 
L 523.894404 274.161088 
L 523.468755 274.096617 
L 523.043105 273.800062 
L 522.556649 273.177723 
L 521.948578 271.977111 
L 521.2797 270.119507 
L 520.489208 267.211137 
L 519.577102 262.920408 
L 518.543381 256.894018 
L 517.388047 248.778984 
L 516.050291 237.713767 
L 514.530114 223.228093 
L 512.645095 202.969644 
L 510.152004 173.532044 
L 504.132103 101.509306 
L 502.186277 81.438442 
L 500.605293 67.329816 
L 499.267537 57.241101 
L 498.112202 50.053977 
L 497.078482 44.912773 
L 496.166376 41.437724 
L 495.375884 39.256619 
L 494.707006 38.025313 
L 494.159742 37.441303 
L 493.673285 37.243839 
L 493.247636 37.319849 
L 492.821986 37.627925 
L 492.33553 38.26338 
L 491.727459 39.480261 
L 491.058581 41.355527 
L 490.268089 44.28434 
L 489.355983 48.597907 
L 488.322262 54.648962 
L 487.166928 62.789693 
L 485.829172 73.881731 
L 484.248188 89.011413 
L 482.363168 109.36539 
L 479.809271 139.616367 
L 474.093405 208.123139 
L 472.147579 228.410028 
L 470.566595 242.741534 
L 469.168032 253.472362 
L 467.95189 261.131266 
L 466.91817 266.32048 
L 466.006064 269.839577 
L 465.215572 272.059819 
L 464.546694 273.324728 
L 463.99943 273.936446 
L 463.512973 274.158623 
L 463.087324 274.104248 
L 462.661674 273.817773 
L 462.175218 273.206912 
L 461.627954 272.160205 
L 460.959076 270.368907 
L 460.168584 267.537317 
L 459.256478 263.332411 
L 458.222757 257.398764 
L 457.067423 249.380437 
L 455.729667 238.416271 
L 454.20949 224.028844 
L 452.385278 204.547894 
L 449.952994 175.975839 
L 443.568251 99.721051 
L 441.683231 80.452775 
L 440.102247 66.488735 
L 438.764491 56.540265 
L 437.609157 49.485273 
L 436.575437 44.469306 
L 435.66333 41.109064 
L 434.872838 39.029887 
L 434.20396 37.886054 
L 433.656697 37.374132 
L 433.231047 37.240999 
L 432.805398 37.340087 
L 432.379748 37.671202 
L 431.893291 38.332879 
L 431.285221 39.58228 
L 430.616343 41.492842 
L 429.825851 44.462499 
L 428.913744 48.821679 
L 427.880024 54.921975 
L 426.724689 63.113982 
L 425.386934 74.259503 
L 423.80595 89.442902 
L 421.92093 109.845606 
L 419.367033 140.132998 
L 413.711974 207.918544 
L 411.766148 228.229857 
L 410.185164 242.58668 
L 408.786601 253.343412 
L 407.570459 261.027077 
L 406.536739 266.238663 
L 405.624632 269.778295 
L 404.83414 272.016785 
L 404.165263 273.297369 
L 403.617999 273.922012 
L 403.131542 274.155719 
L 402.705893 274.11144 
L 402.280243 273.835047 
L 401.793786 273.235665 
L 401.246523 272.201783 
L 400.577645 270.425973 
L 399.787153 267.612326 
L 398.875047 263.427484 
L 397.841326 257.515534 
L 396.685992 249.519849 
L 395.348236 238.579368 
L 393.828059 224.215004 
L 392.003846 204.755555 
L 389.571563 176.200475 
L 383.126013 99.262172 
L 381.240993 80.050887 
L 379.660009 66.14663 
L 378.322253 56.25603 
L 377.166919 49.255483 
L 376.133198 44.291066 
L 375.221092 40.978038 
L 374.491407 39.06959 
L 373.822529 37.910049 
L 373.275266 37.385185 
L 372.849616 37.241959 
L 372.423966 37.330952 
L 371.998317 37.65199 
L 371.51186 38.302198 
L 370.903789 39.537377 
L 370.234911 41.432503 
L 369.444419 44.3843 
L 368.532313 48.723538 
L 367.498593 54.802309 
L 366.343258 62.971906 
L 365.005503 74.094058 
L 363.424518 89.253995 
L 361.539499 109.635433 
L 358.985602 139.906968 
L 353.269736 208.385972 
L 351.323909 228.641341 
L 349.742925 242.94021 
L 348.344362 253.637665 
L 347.128221 261.264684 
L 346.0945 266.425097 
L 345.182394 269.917768 
L 344.391902 272.114528 
L 343.723024 273.359274 
L 343.175761 273.954365 
L 342.689304 274.161712 
L 342.263654 274.094354 
L 341.838005 273.794915 
L 341.351548 273.169293 
L 340.743477 271.964609 
L 340.074599 270.102584 
L 339.284107 267.189097 
L 338.372001 262.892651 
L 337.338281 256.860085 
L 336.182946 248.738617 
L 334.845191 237.666683 
L 333.325014 223.174487 
L 331.439994 202.909823 
L 328.946904 173.467554 
L 322.98781 102.118534 
L 321.041983 81.972668 
L 319.460999 67.786868 
L 318.123243 57.623126 
L 316.907102 50.024485 
L 315.873381 44.889696 
L 314.961275 41.420532 
L 314.170783 39.244653 
L 313.501905 38.017834 
L 312.954641 37.437523 
L 312.468185 37.243358 
L 312.042535 37.322256 
L 311.616886 37.633215 
L 311.130429 38.271952 
L 310.522358 39.492904 
L 309.85348 41.372588 
L 309.062988 44.306515 
L 308.150882 48.625794 
L 307.117162 54.683016 
L 305.961827 62.830172 
L 304.624071 73.928915 
L 303.043087 89.065334 
L 301.158068 109.42543 
L 298.60417 139.680996 
L 292.888305 208.181627 
L 290.942478 228.461516 
L 289.361494 242.785771 
L 287.962931 253.509181 
L 286.74679 261.160998 
L 285.713069 266.343808 
L 284.800963 269.857029 
L 284.010471 272.072049 
L 283.341593 273.332474 
L 282.794329 273.940495 
L 282.307873 274.159373 
L 281.882223 274.10211 
L 281.456574 273.812752 
L 280.970117 273.198607 
L 280.422853 272.148232 
L 279.753975 270.352505 
L 278.963483 267.515785 
L 278.051377 263.305141 
L 277.017657 257.365293 
L 275.862322 249.340494 
L 274.524566 238.369561 
L 273.004389 223.975546 
L 271.180177 204.488459 
L 268.747894 175.911568 
L 262.36315 99.663572 
L 260.478131 80.402408 
L 258.897147 66.445833 
L 257.559391 56.504594 
L 256.404056 49.456407 
L 255.370336 44.446885 
L 254.45823 41.092547 
L 253.728545 39.150292 
L 253.059667 37.959347 
L 252.512403 37.408606 
L 252.086754 37.245195 
L 251.661104 37.313998 
L 251.235455 37.614878 
L 250.748998 38.242141 
L 250.140927 39.448861 
L 249.472049 41.313096 
L 248.681557 44.229142 
L 247.769451 48.528446 
L 246.735731 54.564098 
L 245.580396 62.688783 
L 244.24264 73.764075 
L 242.722463 88.25953 
L 240.837444 108.527298 
L 238.344353 137.9719 
L 232.38526 209.317758 
L 230.439433 229.460064 
L 228.858449 243.642195 
L 227.520693 253.802368 
L 226.304551 261.397455 
L 225.270831 266.529036 
L 224.358725 269.995258 
L 223.568233 272.168523 
L 222.899355 273.393098 
L 222.352091 273.971559 
L 221.865635 274.164076 
L 221.439985 274.083734 
L 221.014335 273.771333 
L 220.527879 273.130955 
L 219.919808 271.907968 
L 219.25093 270.026075 
L 218.460438 267.089592 
L 217.548332 262.767457 
L 216.514611 256.707151 
L 215.359277 248.556784 
L 214.021521 237.454691 
L 212.440537 222.314904 
L 210.555518 201.951752 
L 208.00162 171.693895 
L 202.285755 103.196341 
L 200.339928 82.919954 
L 198.758944 68.599327 
L 197.360381 57.879626 
L 196.144239 50.231355 
L 195.110519 45.051747 
L 194.198413 41.541464 
L 193.407921 39.329055 
L 192.739043 38.070872 
L 192.191779 37.464701 
L 191.705323 37.247472 
L 191.279673 37.306179 
L 190.854023 37.596979 
L 190.367567 38.212766 
L 189.759496 39.405249 
L 189.090618 41.254028 
L 188.300126 44.152182 
L 187.38802 48.431495 
L 186.354299 54.445555 
L 185.198965 62.547739 
L 183.861209 73.599538 
L 182.341032 88.072182 
L 180.51682 107.632379 
L 178.023729 137.006143 
L 171.882214 210.44772 
L 169.997195 229.867287 
L 168.416211 243.990636 
L 167.078455 254.093655 
L 165.92312 261.294271 
L 164.8894 266.448274 
L 163.977294 269.935064 
L 163.186802 272.126599 
L 162.517924 273.366859 
L 161.97066 273.958252 
L 161.484203 274.162301 
L 161.058554 274.092054 
L 160.632904 273.789732 
L 160.146448 273.160828 
L 159.538377 271.952073 
L 158.869499 270.085627 
L 158.079007 267.167024 
L 157.166901 262.864862 
L 156.13318 256.826123 
L 154.977846 248.698222 
L 153.64009 237.619574 
L 152.119913 223.12086 
L 150.234893 202.849989 
L 147.741803 173.403058 
L 141.782709 102.060367 
L 139.836883 81.921623 
L 138.255899 67.743162 
L 136.918143 57.586558 
L 135.702001 49.995026 
L 134.668281 44.866653 
L 133.756175 41.403374 
L 132.965683 39.232722 
L 132.296805 38.010391 
L 131.749541 37.43378 
L 131.263084 37.242913 
L 130.837435 37.324698 
L 130.411785 37.638541 
L 129.925329 38.28056 
L 129.317258 39.505581 
L 128.64838 41.389683 
L 127.857888 44.328723 
L 126.945782 48.653713 
L 125.912061 54.717102 
L 124.756727 62.87068 
L 123.418971 73.976123 
L 121.837987 89.119275 
L 119.952967 109.485483 
L 117.39907 139.745629 
L 111.683204 208.2401 
L 109.737378 228.512983 
L 108.156394 242.829981 
L 106.757831 253.545971 
L 105.541689 261.190697 
L 104.507969 266.367103 
L 103.595863 269.874447 
L 102.805371 272.084244 
L 102.136493 273.340185 
L 101.589229 273.944507 
L 101.102772 274.160087 
L 100.677123 274.099936 
L 100.251473 273.807694 
L 99.765017 273.190266 
L 99.156946 271.995746 
L 98.488068 270.144756 
L 97.697576 267.244043 
L 96.78547 262.961869 
L 95.751749 256.944719 
L 94.596415 248.839316 
L 93.258659 237.784154 
L 91.738482 223.308244 
L 89.853462 203.059102 
L 87.360372 173.628504 
L 81.340471 101.596092 
L 79.394644 81.51449 
L 77.81366 67.394827 
L 76.475905 57.29539 
L 75.32057 50.098153 
L 74.28685 44.947356 
L 73.374743 41.463507 
L 72.584251 39.274584 
L 71.915374 38.036567 
L 71.36811 37.447024 
L 70.881653 37.244625 
L 70.456004 37.316315 
L 70.030354 37.620079 
L 69.543897 38.250624 
L 68.935827 39.461415 
L 68.266949 41.33007 
L 67.476457 44.251232 
L 66.99 46.424727 
L 66.99 46.424727 
" clip-path="url(#pf18516f370)" style="fill: none; stroke-dasharray: 1.5,2.475; stroke-dashoffset: 0; stroke: #0000ff; stroke-width: 1.5"/>
   </g>
   <g id="line2d_20">
    <path d="M 644.5995 274.687875 
L 644.5995 37.240375 
" clip-path="url(#pf18516f370)" style="fill: none; stroke: #000000; stroke-width: 1.5; stroke-linecap: square"/>
   </g>
   <g id="line2d_21">
    <path d="M 644.599616 274.687875 
L 644.599616 37.240375 
" clip-path="url(#pf18516f370)" style="fill: none; stroke-dasharray: 5.55,2.4; stroke-dashoffset: 0; stroke: #000000; stroke-width: 1.5"/>
   </g>
   <g id="line2d_22">
    <path d="M 644.5995 274.687875 
L 523.799628 274.687875 
" clip-path="url(#pf18516f370)" style="fill: none; stroke: #000000; stroke-width: 1.5; stroke-linecap: square"/>
   </g>
   <g id="patch_3">
    <path d="M 66.99 286.56025 
L 66.99 25.368 
" style="fill: none; stroke: #000000; stroke-width: 0.8; stroke-linejoin: miter; stroke-linecap: square"/>
   </g>
   <g id="patch_4">
    <path d="M 675 286.56025 
L 675 25.368 
" style="fill: none; stroke: #000000; stroke-width: 0.8; stroke-linejoin: miter; stroke-linecap: square"/>
   </g>
   <g id="patch_5">
    <path d="M 66.99 286.56025 
L 675 286.56025 
" style="fill: none; stroke: #000000; stroke-width: 0.8; stroke-linejoin: miter; stroke-linecap: square"/>
   </g>
   <g id="patch_6">
    <path d="M 66.99 25.368 
L 675 25.368 
" style="fill: none; stroke: #000000; stroke-width: 0.8; stroke-linejoin: miter; stroke-linecap: square"/>
   </g>
   <g id="text_20">
    <!-- Linea en Cortocircuito -->
    <g transform="translate(305.065312 19.368)scale(0.12 -0.12)">
     <defs>
      <path id="DejaVuSans-4c" d="M 628 4666 
L 1259 4666 
L 1259 531 
L 3531 531 
L 3531 0 
L 628 0 
L 628 4666 
z
" transform="scale(0.015625)"/>
      <path id="DejaVuSans-69" d="M 603 3500 
L 1178 3500 
L 1178 0 
L 603 0 
L 603 3500 
z
M 603 4863 
L 1178 4863 
L 1178 4134 
L 603 4134 
L 603 4863 
z
" transform="scale(0.015625)"/>
      <path id="DejaVuSans-6e" d="M 3513 2113 
L 3513 0 
L 2938 0 
L 2938 2094 
Q 2938 2591 2744 2837 
Q 2550 3084 2163 3084 
Q 1697 3084 1428 2787 
Q 1159 2491 1159 1978 
L 1159 0 
L 581 0 
L 581 3500 
L 1159 3500 
L 1159 2956 
Q 1366 3272 1645 3428 
Q 1925 3584 2291 3584 
Q 2894 3584 3203 3211 
Q 3513 2838 3513 2113 
z
" transform="scale(0.015625)"/>
      <path id="DejaVuSans-65" d="M 3597 1894 
L 3597 1613 
L 953 1613 
Q 991 1019 1311 708 
Q 1631 397 2203 397 
Q 2534 397 2845 478 
Q 3156 559 3463 722 
L 3463 178 
Q 3153 47 2828 -22 
Q 2503 -91 2169 -91 
Q 1331 -91 842 396 
Q 353 884 353 1716 
Q 353 2575 817 3079 
Q 1281 3584 2069 3584 
Q 2775 3584 3186 3129 
Q 3597 2675 3597 1894 
z
M 3022 2063 
Q 3016 2534 2758 2815 
Q 2500 3097 2075 3097 
Q 1594 3097 1305 2825 
Q 1016 2553 972 2059 
L 3022 2063 
z
" transform="scale(0.015625)"/>
      <path id="DejaVuSans-61" d="M 2194 1759 
Q 1497 1759 1228 1600 
Q 959 1441 959 1056 
Q 959 750 1161 570 
Q 1363 391 1709 391 
Q 2188 391 2477 730 
Q 2766 1069 2766 1631 
L 2766 1759 
L 2194 1759 
z
M 3341 1997 
L 3341 0 
L 2766 0 
L 2766 531 
Q 2569 213 2275 61 
Q 1981 -91 1556 -91 
Q 1019 -91 701 211 
Q 384 513 384 1019 
Q 384 1609 779 1909 
Q 1175 2209 1959 2209 
L 2766 2209 
L 2766 2266 
Q 2766 2663 2505 2880 
Q 2244 3097 1772 3097 
Q 1472 3097 1187 3025 
Q 903 2953 641 2809 
L 641 3341 
Q 956 3463 1253 3523 
Q 1550 3584 1831 3584 
Q 2591 3584 2966 3190 
Q 3341 2797 3341 1997 
z
" transform="scale(0.015625)"/>
      <path id="DejaVuSans-43" d="M 4122 4306 
L 4122 3641 
Q 3803 3938 3442 4084 
Q 3081 4231 2675 4231 
Q 1875 4231 1450 3742 
Q 1025 3253 1025 2328 
Q 1025 1406 1450 917 
Q 1875 428 2675 428 
Q 3081 428 3442 575 
Q 3803 722 4122 1019 
L 4122 359 
Q 3791 134 3420 21 
Q 3050 -91 2638 -91 
Q 1578 -91 968 557 
Q 359 1206 359 2328 
Q 359 3453 968 4101 
Q 1578 4750 2638 4750 
Q 3056 4750 3426 4639 
Q 3797 4528 4122 4306 
z
" transform="scale(0.015625)"/>
      <path id="DejaVuSans-6f" d="M 1959 3097 
Q 1497 3097 1228 2736 
Q 959 2375 959 1747 
Q 959 1119 1226 758 
Q 1494 397 1959 397 
Q 2419 397 2687 759 
Q 2956 1122 2956 1747 
Q 2956 2369 2687 2733 
Q 2419 3097 1959 3097 
z
M 1959 3584 
Q 2709 3584 3137 3096 
Q 3566 2609 3566 1747 
Q 3566 888 3137 398 
Q 2709 -91 1959 -91 
Q 1206 -91 779 398 
Q 353 888 353 1747 
Q 353 2609 779 3096 
Q 1206 3584 1959 3584 
z
" transform="scale(0.015625)"/>
      <path id="DejaVuSans-72" d="M 2631 2963 
Q 2534 3019 2420 3045 
Q 2306 3072 2169 3072 
Q 1681 3072 1420 2755 
Q 1159 2438 1159 1844 
L 1159 0 
L 581 0 
L 581 3500 
L 1159 3500 
L 1159 2956 
Q 1341 3275 1631 3429 
Q 1922 3584 2338 3584 
Q 2397 3584 2469 3576 
Q 2541 3569 2628 3553 
L 2631 2963 
z
" transform="scale(0.015625)"/>
      <path id="DejaVuSans-74" d="M 1172 4494 
L 1172 3500 
L 2356 3500 
L 2356 3053 
L 1172 3053 
L 1172 1153 
Q 1172 725 1289 603 
Q 1406 481 1766 481 
L 2356 481 
L 2356 0 
L 1766 0 
Q 1100 0 847 248 
Q 594 497 594 1153 
L 594 3053 
L 172 3053 
L 172 3500 
L 594 3500 
L 594 4494 
L 1172 4494 
z
" transform="scale(0.015625)"/>
      <path id="DejaVuSans-75" d="M 544 1381 
L 544 3500 
L 1119 3500 
L 1119 1403 
Q 1119 906 1312 657 
Q 1506 409 1894 409 
Q 2359 409 2629 706 
Q 2900 1003 2900 1516 
L 2900 3500 
L 3475 3500 
L 3475 0 
L 2900 0 
L 2900 538 
Q 2691 219 2414 64 
Q 2138 -91 1772 -91 
Q 1169 -91 856 284 
Q 544 659 544 1381 
z
M 1991 3584 
L 1991 3584 
z
" transform="scale(0.015625)"/>
     </defs>
     <use xlink:href="#DejaVuSans-4c"/>
     <use xlink:href="#DejaVuSans-69" x="55.712891"/>
     <use xlink:href="#DejaVuSans-6e" x="83.496094"/>
     <use xlink:href="#DejaVuSans-65" x="146.875"/>
     <use xlink:href="#DejaVuSans-61" x="208.398438"/>
     <use xlink:href="#DejaVuSans-20" x="269.677734"/>
     <use xlink:href="#DejaVuSans-65" x="301.464844"/>
     <use xlink:href="#DejaVuSans-6e" x="362.988281"/>
     <use xlink:href="#DejaVuSans-20" x="426.367188"/>
     <use xlink:href="#DejaVuSans-43" x="458.154297"/>
     <use xlink:href="#DejaVuSans-6f" x="527.978516"/>
     <use xlink:href="#DejaVuSans-72" x="589.160156"/>
     <use xlink:href="#DejaVuSans-74" x="630.273438"/>
     <use xlink:href="#DejaVuSans-6f" x="669.482422"/>
     <use xlink:href="#DejaVuSans-63" x="730.664062"/>
     <use xlink:href="#DejaVuSans-69" x="785.644531"/>
     <use xlink:href="#DejaVuSans-72" x="813.427734"/>
     <use xlink:href="#DejaVuSans-63" x="852.291016"/>
     <use xlink:href="#DejaVuSans-75" x="907.271484"/>
     <use xlink:href="#DejaVuSans-69" x="970.650391"/>
     <use xlink:href="#DejaVuSans-74" x="998.433594"/>
     <use xlink:href="#DejaVuSans-6f" x="1037.642578"/>
    </g>
   </g>
   <g id="legend_1">
    <g id="patch_7">
     <path d="M 73.99 281.56025 
L 181.763438 281.56025 
Q 183.763438 281.56025 183.763438 279.56025 
L 183.763438 236.125875 
Q 183.763438 234.125875 181.763438 234.125875 
L 73.99 234.125875 
Q 71.99 234.125875 71.99 236.125875 
L 71.99 279.56025 
Q 71.99 281.56025 73.99 281.56025 
z
" style="fill: #ffffff; opacity: 0.8; stroke: #cccccc; stroke-linejoin: miter"/>
    </g>
    <g id="line2d_23">
     <path d="M 75.99 242.224312 
L 85.99 242.224312 
L 95.99 242.224312 
" style="fill: none; stroke: #1f77b4; stroke-width: 1.5; stroke-linecap: square"/>
    </g>
    <g id="text_21">
     <!-- Señal Medida -->
     <g transform="translate(103.99 245.724312)scale(0.1 -0.1)">
      <defs>
       <path id="DejaVuSans-53" d="M 3425 4513 
L 3425 3897 
Q 3066 4069 2747 4153 
Q 2428 4238 2131 4238 
Q 1616 4238 1336 4038 
Q 1056 3838 1056 3469 
Q 1056 3159 1242 3001 
Q 1428 2844 1947 2747 
L 2328 2669 
Q 3034 2534 3370 2195 
Q 3706 1856 3706 1288 
Q 3706 609 3251 259 
Q 2797 -91 1919 -91 
Q 1588 -91 1214 -16 
Q 841 59 441 206 
L 441 856 
Q 825 641 1194 531 
Q 1563 422 1919 422 
Q 2459 422 2753 634 
Q 3047 847 3047 1241 
Q 3047 1584 2836 1778 
Q 2625 1972 2144 2069 
L 1759 2144 
Q 1053 2284 737 2584 
Q 422 2884 422 3419 
Q 422 4038 858 4394 
Q 1294 4750 2059 4750 
Q 2388 4750 2728 4690 
Q 3069 4631 3425 4513 
z
" transform="scale(0.015625)"/>
       <path id="DejaVuSans-f1" d="M 3513 2113 
L 3513 0 
L 2938 0 
L 2938 2094 
Q 2938 2591 2744 2837 
Q 2550 3084 2163 3084 
Q 1697 3084 1428 2787 
Q 1159 2491 1159 1978 
L 1159 0 
L 581 0 
L 581 3500 
L 1159 3500 
L 1159 2956 
Q 1366 3272 1645 3428 
Q 1925 3584 2291 3584 
Q 2894 3584 3203 3211 
Q 3513 2838 3513 2113 
z
M 2060 4281 
L 1881 4453 
Q 1813 4516 1761 4545 
Q 1710 4575 1669 4575 
Q 1550 4575 1494 4461 
Q 1438 4347 1431 4091 
L 1041 4091 
Q 1047 4513 1206 4742 
Q 1366 4972 1650 4972 
Q 1769 4972 1869 4928 
Q 1969 4884 2085 4781 
L 2263 4609 
Q 2331 4547 2383 4517 
Q 2435 4488 2475 4488 
Q 2594 4488 2650 4602 
Q 2706 4716 2713 4972 
L 3103 4972 
Q 3097 4550 2937 4320 
Q 2778 4091 2494 4091 
Q 2375 4091 2275 4134 
Q 2175 4178 2060 4281 
z
" transform="scale(0.015625)"/>
       <path id="DejaVuSans-6c" d="M 603 4863 
L 1178 4863 
L 1178 0 
L 603 0 
L 603 4863 
z
" transform="scale(0.015625)"/>
       <path id="DejaVuSans-4d" d="M 628 4666 
L 1569 4666 
L 2759 1491 
L 3956 4666 
L 4897 4666 
L 4897 0 
L 4281 0 
L 4281 4097 
L 3078 897 
L 2444 897 
L 1241 4097 
L 1241 0 
L 628 0 
L 628 4666 
z
" transform="scale(0.015625)"/>
       <path id="DejaVuSans-64" d="M 2906 2969 
L 2906 4863 
L 3481 4863 
L 3481 0 
L 2906 0 
L 2906 525 
Q 2725 213 2448 61 
Q 2172 -91 1784 -91 
Q 1150 -91 751 415 
Q 353 922 353 1747 
Q 353 2572 751 3078 
Q 1150 3584 1784 3584 
Q 2172 3584 2448 3432 
Q 2725 3281 2906 2969 
z
M 947 1747 
Q 947 1113 1208 752 
Q 1469 391 1925 391 
Q 2381 391 2643 752 
Q 2906 1113 2906 1747 
Q 2906 2381 2643 2742 
Q 2381 3103 1925 3103 
Q 1469 3103 1208 2742 
Q 947 2381 947 1747 
z
" transform="scale(0.015625)"/>
      </defs>
      <use xlink:href="#DejaVuSans-53"/>
      <use xlink:href="#DejaVuSans-65" x="63.476562"/>
      <use xlink:href="#DejaVuSans-f1" x="125"/>
      <use xlink:href="#DejaVuSans-61" x="188.378906"/>
      <use xlink:href="#DejaVuSans-6c" x="249.658203"/>
      <use xlink:href="#DejaVuSans-20" x="277.441406"/>
      <use xlink:href="#DejaVuSans-4d" x="309.228516"/>
      <use xlink:href="#DejaVuSans-65" x="395.507812"/>
      <use xlink:href="#DejaVuSans-64" x="457.03125"/>
      <use xlink:href="#DejaVuSans-69" x="520.507812"/>
      <use xlink:href="#DejaVuSans-64" x="548.291016"/>
      <use xlink:href="#DejaVuSans-61" x="611.767578"/>
     </g>
    </g>
    <g id="line2d_24">
     <path d="M 75.99 257.302437 
L 85.99 257.302437 
L 95.99 257.302437 
" style="fill: none; stroke-dasharray: 1.5,2.475; stroke-dashoffset: 0; stroke: #0000ff; stroke-width: 1.5"/>
    </g>
    <g id="text_22">
     <!-- Proyección -->
     <g transform="translate(103.99 260.802437)scale(0.1 -0.1)">
      <defs>
       <path id="DejaVuSans-50" d="M 1259 4147 
L 1259 2394 
L 2053 2394 
Q 2494 2394 2734 2622 
Q 2975 2850 2975 3272 
Q 2975 3691 2734 3919 
Q 2494 4147 2053 4147 
L 1259 4147 
z
M 628 4666 
L 2053 4666 
Q 2838 4666 3239 4311 
Q 3641 3956 3641 3272 
Q 3641 2581 3239 2228 
Q 2838 1875 2053 1875 
L 1259 1875 
L 1259 0 
L 628 0 
L 628 4666 
z
" transform="scale(0.015625)"/>
       <path id="DejaVuSans-79" d="M 2059 -325 
Q 1816 -950 1584 -1140 
Q 1353 -1331 966 -1331 
L 506 -1331 
L 506 -850 
L 844 -850 
Q 1081 -850 1212 -737 
Q 1344 -625 1503 -206 
L 1606 56 
L 191 3500 
L 800 3500 
L 1894 763 
L 2988 3500 
L 3597 3500 
L 2059 -325 
z
" transform="scale(0.015625)"/>
       <path id="DejaVuSans-f3" d="M 1959 3097 
Q 1497 3097 1228 2736 
Q 959 2375 959 1747 
Q 959 1119 1226 758 
Q 1494 397 1959 397 
Q 2419 397 2687 759 
Q 2956 1122 2956 1747 
Q 2956 2369 2687 2733 
Q 2419 3097 1959 3097 
z
M 1959 3584 
Q 2709 3584 3137 3096 
Q 3566 2609 3566 1747 
Q 3566 888 3137 398 
Q 2709 -91 1959 -91 
Q 1206 -91 779 398 
Q 353 888 353 1747 
Q 353 2609 779 3096 
Q 1206 3584 1959 3584 
z
M 2394 5119 
L 3016 5119 
L 1998 3944 
L 1519 3944 
L 2394 5119 
z
" transform="scale(0.015625)"/>
      </defs>
      <use xlink:href="#DejaVuSans-50"/>
      <use xlink:href="#DejaVuSans-72" x="58.552734"/>
      <use xlink:href="#DejaVuSans-6f" x="97.416016"/>
      <use xlink:href="#DejaVuSans-79" x="158.597656"/>
      <use xlink:href="#DejaVuSans-65" x="217.777344"/>
      <use xlink:href="#DejaVuSans-63" x="279.300781"/>
      <use xlink:href="#DejaVuSans-63" x="334.28125"/>
      <use xlink:href="#DejaVuSans-69" x="389.261719"/>
      <use xlink:href="#DejaVuSans-f3" x="417.044922"/>
      <use xlink:href="#DejaVuSans-6e" x="478.226562"/>
     </g>
    </g>
    <g id="line2d_25">
     <path d="M 75.99 271.980563 
L 85.99 271.980563 
L 95.99 271.980563 
" style="fill: none; stroke: #000000; stroke-width: 1.5; stroke-linecap: square"/>
    </g>
    <g id="text_23">
     <!-- Plano de Carga -->
     <g transform="translate(103.99 275.480563)scale(0.1 -0.1)">
      <defs>
       <path id="DejaVuSans-67" d="M 2906 1791 
Q 2906 2416 2648 2759 
Q 2391 3103 1925 3103 
Q 1463 3103 1205 2759 
Q 947 2416 947 1791 
Q 947 1169 1205 825 
Q 1463 481 1925 481 
Q 2391 481 2648 825 
Q 2906 1169 2906 1791 
z
M 3481 434 
Q 3481 -459 3084 -895 
Q 2688 -1331 1869 -1331 
Q 1566 -1331 1297 -1286 
Q 1028 -1241 775 -1147 
L 775 -588 
Q 1028 -725 1275 -790 
Q 1522 -856 1778 -856 
Q 2344 -856 2625 -561 
Q 2906 -266 2906 331 
L 2906 616 
Q 2728 306 2450 153 
Q 2172 0 1784 0 
Q 1141 0 747 490 
Q 353 981 353 1791 
Q 353 2603 747 3093 
Q 1141 3584 1784 3584 
Q 2172 3584 2450 3431 
Q 2728 3278 2906 2969 
L 2906 3500 
L 3481 3500 
L 3481 434 
z
" transform="scale(0.015625)"/>
      </defs>
      <use xlink:href="#DejaVuSans-50"/>
      <use xlink:href="#DejaVuSans-6c" x="60.302734"/>
      <use xlink:href="#DejaVuSans-61" x="88.085938"/>
      <use xlink:href="#DejaVuSans-6e" x="149.365234"/>
      <use xlink:href="#DejaVuSans-6f" x="212.744141"/>
      <use xlink:href="#DejaVuSans-20" x="273.925781"/>
      <use xlink:href="#DejaVuSans-64" x="305.712891"/>
      <use xlink:href="#DejaVuSans-65" x="369.189453"/>
      <use xlink:href="#DejaVuSans-20" x="430.712891"/>
      <use xlink:href="#DejaVuSans-43" x="462.5"/>
      <use xlink:href="#DejaVuSans-61" x="532.324219"/>
      <use xlink:href="#DejaVuSans-72" x="593.603516"/>
      <use xlink:href="#DejaVuSans-67" x="632.966797"/>
      <use xlink:href="#DejaVuSans-61" x="696.443359"/>
     </g>
    </g>
   </g>
  </g>
 </g>
 <defs>
  <clipPath id="pf18516f370">
   <rect x="66.99" y="25.368" width="608.01" height="261.19225"/>
  </clipPath>
 </defs>
</svg>
